<svg width="128" height="128" viewBox="0 0 128 128" fill="none" xmlns="http://www.w3.org/2000/svg">
<g clip-path="url(#clip0_172_3)">
<path d="M102 16H22C19.7909 16 18 17.7909 18 20V100C18 102.209 19.7909 104 22 104H102C104.209 104 106 102.209 106 100V20C106 17.7909 104.209 16 102 16Z" fill="white" stroke="black" stroke-width="6" stroke-linecap="round" stroke-linejoin="round"/>
<path d="M42 64L54 76L82 48" stroke="black" stroke-width="6" stroke-linecap="round" stroke-linejoin="round"/>
<g clip-path="url(#clip1_172_3)">
<path d="M96.3204 63.5195V84.3329L115.804 116.802C116.03 117.178 116.152 117.608 116.158 118.047C116.164 118.485 116.053 118.918 115.837 119.3C115.621 119.682 115.308 120 114.929 120.221C114.55 120.442 114.119 120.559 113.68 120.56H64.0804C63.6413 120.56 63.2101 120.443 62.8308 120.222C62.4514 120.001 62.1376 119.683 61.9213 119.301C61.7051 118.919 61.5941 118.486 61.5998 118.047C61.6055 117.608 61.7277 117.179 61.9538 116.802L81.4404 84.3329V63.5195" fill="#B7F5FF"/>
<path d="M96.3204 63.5195V84.3329L115.804 116.802C116.03 117.178 116.152 117.608 116.158 118.047C116.164 118.485 116.053 118.918 115.837 119.3C115.621 119.682 115.308 120 114.929 120.221C114.55 120.442 114.119 120.559 113.68 120.56H64.0804C63.6413 120.56 63.2101 120.443 62.8308 120.222C62.4514 120.001 62.1376 119.683 61.9213 119.301C61.7051 118.919 61.5941 118.486 61.5998 118.047C61.6055 117.608 61.7277 117.179 61.9538 116.802L81.4404 84.3329V63.5195" stroke="black" stroke-width="3" stroke-linecap="round" stroke-linejoin="round"/>
<path d="M71.4056 101.055C75.5069 100.286 81.3256 100.618 88.8803 104.44C98.8778 109.502 105.853 108.442 109.805 106.811L115.761 116.96L113.841 120.8H62.6406V116.96L71.4056 101.055Z" fill="#3AFF89" stroke="black" stroke-linecap="round" stroke-linejoin="round"/>
<path d="M96.3194 63.5195V84.3329L115.803 116.802C116.029 117.178 116.151 117.608 116.157 118.047C116.163 118.485 116.052 118.918 115.836 119.3C115.62 119.682 115.307 120 114.928 120.221C114.549 120.442 114.118 120.559 113.679 120.56H64.0794C63.6403 120.56 63.2091 120.443 62.8298 120.222C62.4505 120.001 62.1366 119.683 61.9204 119.301C61.7041 118.919 61.5931 118.486 61.5988 118.047C61.6045 117.608 61.7267 117.179 61.9528 116.802L81.4394 84.3329V63.5195" stroke="black" stroke-width="3" stroke-linecap="round" stroke-linejoin="round"/>
<path d="M76.4805 63.5195H101.28" stroke="black" stroke-width="3" stroke-linecap="round" stroke-linejoin="round"/>
<path d="M71.4053 101.055C75.5066 100.286 81.3253 100.618 88.88 104.44C98.8775 109.502 105.852 108.442 109.805 106.811" stroke="black" stroke-linecap="round" stroke-linejoin="round"/>
</g>
</g>
<defs>
<clipPath id="clip0_172_3">
<rect width="128" height="128" fill="white"/>
</clipPath>
<clipPath id="clip1_172_3">
<rect width="79.36" height="79.36" fill="white" transform="translate(49.2002 53.5996)"/>
</clipPath>
</defs>
</svg>
